Coordinates
version=1
nRows=17
nColumns=24
inDegrees=yes

Units are S.I. units (second, meters, Newtons, ...)
Angles are in degrees.

endheader
time	pelvis_tilt	pelvis_list	pelvis_rotation	pelvis_tx	pelvis_ty	pelvis_tz	hip_flexion_r	hip_adduction_r	hip_rotation_r	knee_angle_r	ankle_angle_r	subtalar_angle_r	mtp_angle_r	hip_flexion_l	hip_adduction_l	hip_rotation_l	knee_angle_l	ankle_angle_l	subtalar_angle_l	mtp_angle_l	lumbar_extension	lumbar_bending	lumbar_rotation
      2.82000000	     -9.87833704	     13.18426097	     -3.65877438	     -1.64317455	     -0.03820890	      0.74162146	     25.37941903	    -17.62104517	      3.14283615	    -70.81373614	    -24.06814723	     -8.17886548	     40.44013805	     26.63337891	     16.55045636	      3.35340503	    -29.08156442	     12.45488777	    -11.52949421	    -25.49482332	      8.33584867	    -14.70539257	      2.90704349
      2.82500000	     -9.83968392	     13.04177266	     -3.50689139	     -1.63600750	     -0.03655587	      0.74096445	     26.19279825	    -17.42430099	      3.10384715	    -71.29789973	    -23.46133529	     -8.33818946	     40.37152311	     25.68566437	     16.60675143	      3.89633049	    -28.40104964	     12.49563167	    -11.76034682	    -25.53703739	      8.35387393	    -14.55318817	      2.63943988
      2.83000000	     -9.78610971	     12.90066275	     -3.33920145	     -1.62884932	     -0.03492227	      0.74029304	     26.96567512	    -17.23331927	      3.04328404	    -71.71206447	    -22.85545823	     -8.47433940	     40.18679618	     24.71175473	     16.65677006	      4.44317207	    -27.70842885	     12.55544445	    -11.91865281	    -25.57538535	      8.34670577	    -14.40711144	      2.34638042
      2.83500000	     -9.72244580	     12.75255009	     -3.16939683	     -1.62175230	     -0.03333869	      0.73963670	     27.71370544	    -17.03001090	      2.96621143	    -72.06565382	    -22.25715064	     -8.65318101	     39.85459812	     23.73212463	     16.68285649	      4.96589366	    -27.01971285	     12.63146586	    -12.02426748	    -25.59159535	      8.31481888	    -14.25775921	      2.03964912
      2.84000000	     -9.69252937	     12.58214648	     -3.00439007	     -1.61461071	     -0.03177625	      0.73898888	     28.47226287	    -16.78780124	      2.89189790	    -72.32426447	    -21.79143266	     -8.88637220	     39.57185983	     22.77141958	     16.66274484	      5.48293396	    -26.30484901	     12.69434366	    -12.08875013	    -25.56712045	      8.33002054	    -14.07541960	      1.75795486
      2.84500000	     -9.64967857	     12.41259189	     -2.82324064	     -1.60752150	     -0.03028138	      0.73833084	     29.19733114	    -16.55627379	      2.78263143	    -72.52216796	    -21.33815634	     -9.19800608	     39.20076556	     21.80423042	     16.63461868	      5.98901941	    -25.59426906	     12.75225911	    -12.14451481	    -25.51735153	      8.31535027	    -13.90013140	      1.44303706
      2.85000000	     -9.59700268	     12.23549519	     -2.64143727	     -1.60050834	     -0.02886773	      0.73769988	     29.89858007	    -16.31176317	      2.65653497	    -72.66600809	    -20.88329443	     -9.57998966	     38.66712583	     20.84454734	     16.58161308	      6.45352250	    -24.89816007	     12.81085400	    -12.20869217	    -25.45576117	      8.27272238	    -13.72123056	      1.10315248
      2.85500000	     -9.58475990	     12.03163276	     -2.47421811	     -1.59343647	     -0.02749472	      0.73708158	     30.61644516	    -16.02115799	      2.54469309	    -72.71621076	    -20.53273704	     -9.97442192	     38.22676894	     19.92026922	     16.47815235	      6.90690752	    -24.18444641	     12.85109404	    -12.27862398	    -25.43662337	      8.29158072	    -13.49928011	      0.82184171
      2.86000000	     -9.51246748	     11.86124183	     -2.27825476	     -1.58645081	     -0.02622224	      0.73650333	     31.26282913	    -15.79246035	      2.37301359	    -72.75050680	    -20.10640842	    -10.43086880	     37.31346306	     18.95348773	     16.40613643	      7.35031537	    -23.50070414	     12.94490106	    -12.29693375	    -25.44226366	      8.21783524	    -13.34184955	      0.45545765
      2.86500000	     -9.50893521	     11.62471043	     -2.09814767	     -1.57950319	     -0.02505002	      0.73586751	     31.95339180	    -15.47574620	      2.20867886	    -72.68094124	    -19.78921004	    -10.96900779	     36.77096635	     18.07872961	     16.26004568	      7.79975370	    -22.83928212	     12.98237419	    -12.44820554	    -25.49811853	      8.21539931	    -13.08787185	      0.10630879
      2.87000000	     -9.45131173	     11.40730267	     -1.93190406	     -1.57251387	     -0.02391583	      0.73532620	     32.57388446	    -15.17902488	      2.03246888	    -72.58178772	    -19.37933194	    -11.40928053	     35.62027232	     17.14940675	     16.11434026	      8.23103122	    -22.18735419	     13.10871422	    -12.46428601	    -25.63254223	      8.16502649	    -12.86463268	     -0.20199607
      2.87500000	     -9.48129423	     11.14573188	     -1.75375787	     -1.56558557	     -0.02292048	      0.73467592	     33.26421771	    -14.83927175	      1.85504568	    -72.37477716	    -19.17541411	    -11.98258661	     35.17589414	     16.32901802	     15.93121141	      8.73239396	    -21.55804496	     13.14130584	    -12.59943878	    -25.67515258	      8.19647943	    -12.57572414	     -0.53266829
      2.88000000	     -9.40518269	     10.92737701	     -1.52154321	     -1.55871623	     -0.02197287	      0.73403537	     33.81918207	    -14.60504321	      1.56498582	    -72.15296919	    -18.86692554	    -12.66346648	     34.06046206	     15.40965307	     15.80355138	      9.27535657	    -20.96515030	     13.23637704	    -12.64248149	    -25.71420622	      8.08365862	    -12.36112942	     -0.94941602
      2.88500000	     -9.39456705	     10.65628163	     -1.33275246	     -1.55188575	     -0.02115021	      0.73344464	     34.43513954	    -14.27269916	      1.33167544	    -71.86023087	    -18.59977121	    -13.24069463	     33.07334570	     14.58254654	     15.60274617	      9.81503732	    -20.39782469	     13.30552977	    -12.74871544	    -25.72392657	      8.04667209	    -12.07886472	     -1.31869084
      2.89000000	     -9.36850860	     10.39430207	     -1.14299021	     -1.54509251	     -0.02040872	      0.73285144	     35.02236832	    -13.96021076	      1.08865072	    -71.51708030	    -18.32973704	    -13.80364872	     31.97669178	     13.75522789	     15.40561549	     10.35396281	    -19.85024227	     13.37609691	    -12.84324793	    -25.70816879	      7.98422415	    -11.80365263	     -1.69004848
      2.89500000	     -9.35637835	     10.11737611	     -0.96678760	     -1.53840207	     -0.01979020	      0.73226898	     35.61712100	    -13.62214444	      0.86220941	    -71.11760851	    -18.07701838	    -14.34905746	     30.96004782	     12.97703110	     15.18648518	     10.87309006	    -19.34338956	     13.44518690	    -12.99143918	    -25.69531004	      7.92108950	    -11.50595528	     -2.09511818
      2.90000000	     -9.32577817	      9.86997293	     -0.76033498	     -1.53166092	     -0.01920319	      0.73169785	     36.16253040	    -13.34870425	      0.59289822	    -70.66137957	    -17.80796455	    -14.85770099	     29.75581108	     12.16902831	     14.98846860	     11.41110059	    -18.82068782	     13.51062470	    -13.08647883	    -25.70747126	      7.84260074	    -11.25002970	     -2.45279346
